<?xml version="1.0" standalone="no"?>
<!DOCTYPE svg PUBLIC "-//W3C//DTD SVG 20010904//EN"
 "http://www.w3.org/TR/2001/REC-SVG-20010904/DTD/svg10.dtd">
<svg version="1.0" xmlns="http://www.w3.org/2000/svg"
 width="1200.000000pt" height="1200.000000pt" viewBox="0 0 1200.000000 1200.000000"
 preserveAspectRatio="xMidYMid meet">
<metadata>
Created by potrace 1.14, written by Peter Selinger 2001-2017
</metadata>
<g transform="translate(0.000000,1200.000000) scale(0.100000,-0.100000)"
fill="#000000" stroke="none">
<path d="M4269 7496 c-2 -2 -67 -7 -144 -10 -168 -8 -236 -13 -290 -20 -22 -3
-65 -8 -96 -11 -31 -3 -67 -8 -80 -10 -13 -3 -51 -10 -84 -15 -387 -64 -719
-212 -1040 -463 -243 -190 -408 -350 -1914 -1849 l-620 -618 846 0 846 0 116
114 c64 63 148 144 186 181 39 37 183 177 320 310 138 133 284 275 325 314
526 505 563 539 659 617 13 10 28 24 35 30 6 5 45 34 87 62 99 68 241 134 354
166 95 27 101 28 250 50 22 4 72 9 110 12 39 3 93 8 120 11 28 3 1051 6 2274
8 l2224 3 561 561 561 561 -2801 0 c-1541 -1 -2803 -2 -2805 -4z"/>
<path d="M8695 6000 l-1500 -1500 902 0 903 0 1495 1495 c822 822 1495 1497
1495 1500 0 3 -404 5 -898 5 l-897 0 -1500 -1500z"/>
<path d="M4707 6194 c-1 -1 -96 -4 -212 -8 -115 -4 -232 -9 -260 -11 -73 -6
-167 -17 -190 -20 -11 -2 -40 -7 -65 -11 -54 -9 -50 -8 -125 -28 -208 -55
-382 -161 -590 -359 -55 -53 -362 -357 -683 -676 l-582 -581 787 0 788 0 220
221 c222 223 293 285 375 331 61 33 153 64 220 73 30 4 64 10 75 13 11 3 704
6 1539 8 l1519 2 519 519 c285 285 518 520 518 523 0 4 -3848 8 -3853 4z"/>
<path d="M9769 4875 c0 0 -3 -12 -5 -27 -5 -31 -5 -31 69 -29 l47 1 1 -57 c0
-32 0 -104 0 -160 l-1 -103 34 0 35 0 0 128 c-1 215 -6 194 44 192 74 -3 76
-2 74 27 l-2 27 -148 0 c-81 1 -147 1 -148 1z"/>
<path d="M10115 4871 c-3 -2 -5 -87 -5 -188 l0 -183 30 0 29 0 3 142 3 141 38
-104 c21 -57 39 -109 40 -116 2 -7 6 -16 10 -19 4 -4 7 -16 7 -26 0 -16 6 -19
31 -16 29 3 33 8 70 108 21 58 38 106 39 108 0 1 6 16 13 34 12 29 13 17 13
-107 l-1 -140 30 0 30 0 1 183 c1 100 -1 182 -5 183 -25 4 -73 4 -79 -1 -5 -3
-28 -61 -52 -130 -23 -69 -46 -131 -50 -138 -4 -9 -26 39 -55 120 -26 73 -50
138 -54 143 -6 10 -77 15 -86 6z"/>
</g>
</svg>
